<svg xmlns="http://www.w3.org/2000/svg" 
     shape-rendering="geometricPrecision" 
     text-rendering="geometricPrecision" 
     image-rendering="optimizeQuality" 
     fill-rule="evenodd" 
     clip-rule="evenodd" 
     viewBox="0 0 513 714.142" 
     width="256" 
     height="346" 
     style="border-radius: 50%;">
  <path fill="#007A3D" fill-rule="nonzero" d="M28.477.32h456.044c15.488 0 28.159 12.672 28.159 28.16v600.222c0 15.488-12.671 28.16-28.159 28.16H28.477c-15.486 0-28.157-12.672-28.157-28.16V28.48C.32 12.992 12.991.32 28.477.32z"/>
  <path fill="#fff" fill-rule="nonzero" d="M512.68 475.884H.32V28.48C.32 12.992 12.991.32 28.477.32h456.044c15.488 0 28.159 12.672 28.159 28.16v447.404z"/>
  <path fill-rule="nonzero" d="M512.68 238.258H.32V28.48C.32 12.992 12.991.32 28.477.32h456.044c15.488 0 28.159 12.672 28.159 28.16v209.778z"/>
  <path fill="#CE1126" fill-rule="nonzero" d="M2.789 680.174l323.102-323.102L2.789 33.968A27.903 27.903 0 00.32 56.96v600.222c0 4.088.884 7.981 2.469 11.496z"/>
  <path fill="#fff" fill-rule="nonzero" d="M79.599 306.152l5.523 13.99 14.382-4.405-7.494 13.041 12.411 8.5-14.869 2.27 1.093 15.002-11.046-10.208-11.046 10.208 1.093-15.002-14.867-2.27 12.409-8.5-7.494-13.041 14.382 4.405z"/>
  <rect fill="none" stroke="#CCC" stroke-width=".64" stroke-miterlimit="22.926" x=".32" y=".319" width="512.359" height="712.86" rx="27.231" ry="28.159"/>
</svg>
